<svg width="39" height="39" viewBox="0 0 39 39" fill="none" xmlns="http://www.w3.org/2000/svg">
<path d="M37.8294 19.5C38.4755 19.5 39.003 20.0244 38.9643 20.6694C38.7169 24.7886 37.1676 28.7347 34.5244 31.9298C31.632 35.4261 27.6108 37.8043 23.1536 38.6546C18.6963 39.5049 14.082 38.774 10.1056 36.588C6.12926 34.4019 3.03976 30.8975 1.36934 26.6784C-0.301085 22.4594 -0.447829 17.7898 0.954382 13.4742C2.35659 9.15853 5.21996 5.46704 9.05123 3.03561C12.8825 0.604171 17.4418 -0.414964 21.9436 0.153763C26.0576 0.673484 29.8882 2.48948 32.8883 5.32291C33.3581 5.76658 33.3325 6.5099 32.8615 6.95224V6.95224C32.3904 7.39458 31.6526 7.36799 31.1792 6.92817C28.5546 4.48972 25.224 2.92677 21.6504 2.47531C17.6887 1.97483 13.6766 2.87167 10.305 5.01133C6.93353 7.151 4.41376 10.3995 3.17982 14.1973C1.94587 17.995 2.07501 22.1042 3.54498 25.817C5.01495 29.5298 7.73371 32.6137 11.2329 34.5374C14.7321 36.4612 18.7927 37.1043 22.7151 36.356C26.6375 35.6078 30.1762 33.515 32.7215 30.4382C35.0175 27.6627 36.3755 24.2433 36.6195 20.6691C36.6636 20.0245 37.1832 19.5 37.8294 19.5V19.5Z" fill="#23A55A" fill-opacity="0.24"/>
<path d="M37.0494 19.5C38.1263 19.5 39.0095 20.3752 38.902 21.4468C38.5583 24.8721 37.3123 28.158 35.2753 30.9618C32.8548 34.2933 29.4418 36.7731 25.5254 38.0456C21.609 39.3181 17.3903 39.3181 13.4739 38.0456C9.55756 36.7731 6.14456 34.2933 3.72411 30.9618C1.30365 27.6303 -3.60001e-07 23.618 0 19.5C3.60001e-07 15.382 1.30365 11.3697 3.72411 8.03818C6.14457 4.70666 9.55757 2.22693 13.4739 0.954397C16.7699 -0.116546 20.28 -0.286198 23.6438 0.44544C24.6962 0.674327 25.2556 1.7847 24.9228 2.80894V2.80894C24.5901 3.83319 23.4906 4.38073 22.4328 4.17822C19.859 3.68547 17.1913 3.84724 14.6791 4.66352C11.546 5.68154 8.81559 7.66532 6.87922 10.3305C4.94286 12.9958 3.89994 16.2056 3.89994 19.5C3.89994 22.7944 4.94286 26.0042 6.87922 28.6694C8.81559 31.3347 11.546 33.3185 14.6791 34.3365C17.8122 35.3545 21.1872 35.3545 24.3203 34.3365C27.4534 33.3185 30.1838 31.3347 32.1201 28.6694C33.6728 26.5324 34.651 24.0452 34.9777 21.445C35.112 20.3764 35.9725 19.5 37.0494 19.5V19.5Z" fill="#23A55A" fill-opacity="0.36"/>
<path d="M36.2694 19.5C37.7771 19.5 39.019 20.7281 38.8086 22.2211C38.4226 24.9598 37.4569 27.5959 35.9638 29.9486C33.9811 33.0729 31.1504 35.5686 27.8022 37.1441C24.4541 38.7197 20.7268 39.31 17.0557 38.8462C13.3846 38.3825 9.92124 36.8837 7.07012 34.525C4.219 32.1663 2.09783 29.0451 0.954382 25.5258C-0.189069 22.0066 -0.307606 18.2346 0.612618 14.6505C1.53284 11.0665 3.45384 7.81817 6.15123 5.28511C8.18247 3.37762 10.5908 1.935 13.2086 1.04271C14.6357 0.556266 16.0748 1.54602 16.3573 3.02706V3.02706C16.6399 4.50808 15.6522 5.91355 14.2537 6.47693C12.6456 7.12472 11.164 8.06776 9.88879 9.26528C7.94667 11.0891 6.56356 13.4278 5.90099 16.0084C5.23843 18.5889 5.32378 21.3047 6.14706 23.8386C6.97035 26.3724 8.49759 28.6197 10.5504 30.318C12.6032 32.0163 15.0968 33.0954 17.74 33.4293C20.3832 33.7632 23.0669 33.3381 25.4775 32.2038C27.8882 31.0694 29.9263 29.2725 31.3538 27.023C32.2912 25.546 32.9399 23.9138 33.2749 22.2128C33.5662 20.7335 34.7617 19.5 36.2694 19.5V19.5Z" fill="#23A55A" fill-opacity="0.48"/>
<path d="M35.6844 19.5C37.5152 19.5 39.028 20.9946 38.7183 22.799C38.3356 25.0282 37.5666 27.1822 36.4377 29.1614C34.759 32.1047 32.3423 34.5597 29.4258 36.2845C26.5094 38.0093 23.1938 38.9444 19.806 38.9976C16.4181 39.0508 13.0748 38.2203 10.1056 36.588C7.13646 34.9556 4.64385 32.5778 2.87347 29.6887C1.10309 26.7997 0.116051 23.4992 0.00962202 20.1125C-0.0968073 16.7258 0.681049 13.3699 2.26653 10.3754C3.33269 8.36171 4.73931 6.55823 6.41631 5.04074C7.77386 3.81232 9.84649 4.28876 10.8275 5.83459V5.83459C11.8085 7.38039 11.308 9.40626 10.0631 10.7487C9.3045 11.5667 8.65226 12.4834 8.1258 13.4777C7.07938 15.4541 6.566 17.669 6.63624 19.9043C6.70648 22.1395 7.35793 24.3178 8.52638 26.2246C9.69483 28.1313 11.34 29.7007 13.2996 30.7781C15.2593 31.8554 17.4658 32.4035 19.7018 32.3684C21.9378 32.3333 24.1261 31.7161 26.0509 30.5777C27.9758 29.4394 29.5708 27.8191 30.6788 25.8765C31.2362 24.8992 31.6607 23.8573 31.9449 22.7784C32.4113 21.008 33.8536 19.5 35.6844 19.5V19.5Z" fill="#23A55A" fill-opacity="0.6"/>
<path d="M34.7094 19.5C37.0787 19.5 39.0464 21.4433 38.5294 23.7554C38.2182 25.1471 37.7543 26.5046 37.1435 27.8027C35.9214 30.3999 34.1409 32.6953 31.9292 34.525C29.7176 36.3547 27.1293 37.6735 24.3491 38.3874C21.5689 39.1012 18.6653 39.1925 15.8458 38.6546C13.0263 38.1167 10.3602 36.963 8.03806 35.2758C5.71587 33.5886 3.7948 31.4096 2.41198 28.8942C1.02916 26.3788 0.218711 23.5892 0.0384782 20.7244C-0.0516013 19.2926 0.0168559 17.8597 0.239799 16.4513C0.610221 14.1111 3.15515 13.0286 5.35806 13.9008V13.9008C7.56092 14.773 8.54366 17.3042 8.58123 19.6732C8.58394 19.8439 8.59066 20.0148 8.60141 20.1857C8.70234 21.7899 9.15619 23.3521 9.93057 24.7607C10.7049 26.1694 11.7807 27.3896 13.0812 28.3345C14.3816 29.2793 15.8746 29.9254 17.4535 30.2266C19.0325 30.5278 20.6584 30.4767 22.2153 30.0769C23.7722 29.6772 25.2217 28.9386 26.4602 27.914C27.6988 26.8894 28.6958 25.604 29.3802 24.1495C29.4531 23.9946 29.5223 23.8382 29.5876 23.6805C30.4946 21.4917 32.3402 19.5 34.7094 19.5V19.5Z" fill="#23A55A" fill-opacity="0.72"/>
<path d="M33.9294 19.5C36.7295 19.5 39.0639 21.8072 38.344 24.5131C37.5209 27.607 35.9415 30.477 33.7143 32.8487C30.3192 36.4642 25.674 38.6501 20.7241 38.9615C15.7742 39.2729 10.8916 37.6865 7.07012 34.525C4.5633 32.4511 2.63665 29.8018 1.43224 26.8354C0.378896 24.2411 2.40573 21.6595 5.18368 21.3086V21.3086C7.96165 20.9576 10.4149 23.0935 12.1478 25.2929C12.5552 25.81 13.0189 26.2863 13.5335 26.712C15.3678 28.2295 17.7114 28.991 20.0874 28.8415C22.4633 28.692 24.693 27.6428 26.3227 25.9074C26.7799 25.4205 27.1803 24.8898 27.5197 24.3257C28.9632 21.9265 31.1294 19.5 33.9294 19.5V19.5Z" fill="#23A55A" fill-opacity="0.84"/>
<path d="M38.9999 19.5C38.9999 23.618 37.6962 27.6303 35.2758 30.9618C32.8553 34.2933 29.4423 36.7731 25.5259 38.0456C21.6095 39.3181 17.3908 39.3181 13.4744 38.0456C11.4276 37.3805 9.51832 36.3857 7.81633 35.112C5.22973 33.1761 5.84345 29.4224 8.45721 27.5233L9.22518 26.9653C11.4149 25.3744 14.5158 26.0818 17.0899 26.9182V26.9182C18.6564 27.4273 20.3439 27.4273 21.9105 26.9182C23.477 26.4092 24.8422 25.4173 25.8104 24.0847V24.0847C27.4013 21.895 29.4942 19.5 32.2009 19.5H38.9999Z" fill="#23A55A" fill-opacity="0.96"/>
</svg>
