<?xml version="1.0" encoding="UTF-8"?>
<svg version="1.1" xmlns="http://www.w3.org/2000/svg" width="1066" height="242">
<path d="M0 0 C0.84620911 -0.00073517 1.69241821 -0.00147034 2.56427002 -0.00222778 C15.81446914 0.02803527 28.12826731 0.86163328 40.6875 5.4375 C41.39374512 5.68918945 42.09999023 5.94087891 42.82763672 6.20019531 C58.8351963 12.10142873 72.73553287 21.64384192 85.24511719 33.11669922 C86.45204551 34.22189255 87.6805968 35.30341072 88.9140625 36.37890625 C108.39148157 54.29332256 121.4238394 83.36915795 122.86450195 109.66870117 C123.56267593 147.40069305 115.16234206 178.87814132 88.47265625 206.69140625 C84.13631493 210.96692932 79.52129879 214.74269978 74.6875 218.4375 C73.8728125 219.10265625 73.058125 219.7678125 72.21875 220.453125 C51.79737821 236.46247202 26.0613456 242.88435534 0.5625 242.8125 C-0.16516571 242.81195618 -0.89283142 242.81141235 -1.64254761 242.81085205 C-12.94932293 242.77203717 -23.52906246 242.03651308 -34.3125 238.4375 C-34.99505859 238.21787598 -35.67761719 237.99825195 -36.38085938 237.77197266 C-69.67678077 226.85109593 -95.36351872 203.08042207 -111.17236328 172.08203125 C-124.43548302 144.78459557 -124.85263839 111.63140117 -116.1875 82.9375 C-104.72583996 50.67378235 -81.08225281 25.51919911 -50.57592773 10.52270508 C-43.38274503 7.10326968 -36.04587734 4.37313774 -28.3125 2.4375 C-27.66337646 2.26162354 -27.01425293 2.08574707 -26.34545898 1.90454102 C-17.68278531 -0.17119139 -8.85612897 -0.00332945 0 0 Z M-41.3125 83.4375 C-43.92161259 86.62641538 -46.17520272 89.91724566 -48.3125 93.4375 C-48.78558594 94.20578125 -49.25867188 94.9740625 -49.74609375 95.765625 C-56.56829666 107.99295603 -57.75772798 122.13981309 -54.5546875 135.62890625 C-49.88313268 150.99792903 -40.67898043 161.81239822 -27.3125 170.4375 C-23.40256947 172.43108186 -19.46238152 174.01843132 -15.3125 175.4375 C-14.075 175.870625 -12.8375 176.30375 -11.5625 176.75 C3.70319627 180.05756752 19.57447459 176.56438178 32.6875 168.4375 C44.58652006 159.55153652 54.08148723 146.2516431 56.6875 131.4375 C58.34352364 113.44631281 55.51735766 98.56467271 43.94921875 84.29296875 C33.83779241 73.31546734 20.17255171 66.00176945 5.2265625 65.1015625 C-13.33149558 64.46768243 -28.36248482 69.73483436 -41.3125 83.4375 Z " fill="#FFFFFF" transform="translate(685.3125,-0.43749999999999994)"/>
<path d="M0 0 C2.35880684 0.00848841 4.71516186 -0.02034167 7.07373047 -0.05200195 C35.48609792 -0.18290644 61.05118513 11.00926048 82.58740234 29.15551758 C83.97306573 30.3188938 85.38337205 31.4527651 86.79638672 32.58276367 C108.34115054 50.59391177 121.94767253 80.00042522 124.88232422 107.61010742 C127.0652196 142.18435362 119.05354635 172.92630884 96.52685547 199.72729492 C80.48657333 217.88019958 61.36055068 231.3281558 38.12451172 238.44604492 C37.45774414 238.65632324 36.79097656 238.86660156 36.10400391 239.08325195 C25.01063569 242.42077555 13.87642518 242.83486196 2.37451172 242.88354492 C1.68148956 242.88980896 0.98846741 242.896073 0.27444458 242.90252686 C-31.74811103 243.08548309 -61.20900508 229.81280603 -83.87548828 207.44604492 C-103.58134887 187.49577056 -118.83055868 160.78122068 -119.11376953 132.14526367 C-119.12184128 131.3506221 -119.12991302 130.55598053 -119.13822937 129.73725891 C-119.15201476 128.05549255 -119.16276153 126.37369887 -119.1706543 124.69189453 C-119.18207743 123.0059361 -119.20237234 121.320011 -119.23217773 119.63427734 C-119.7500382 90.25509822 -109.00013503 64.336162 -90.17041016 41.98754883 C-88.99473183 40.5879951 -87.84745691 39.16470366 -86.70361328 37.73901367 C-65.99209216 13.0175552 -31.58660711 -0.17233788 0 0 Z M-17.87548828 68.44604492 C-18.68888672 68.75155273 -19.50228516 69.05706055 -20.34033203 69.37182617 C-34.1293821 75.36232976 -45.33361306 88.66832735 -50.87548828 102.44604492 C-55.99909283 115.89550686 -55.32045897 131.11718675 -49.65673828 144.27807617 C-42.84217493 157.81255615 -30.6813654 169.73417748 -16.21533203 174.73901367 C-15.44318359 174.97233398 -14.67103516 175.2056543 -13.87548828 175.44604492 C-12.85648438 175.78055664 -12.85648438 175.78055664 -11.81689453 176.12182617 C1.49115172 179.8199033 16.54969804 177.96360845 28.74951172 171.82104492 C43.09382459 163.41230979 53.47995428 150.41171113 58.12451172 134.44604492 C61.16730686 119.77821193 59.31423225 104.1472244 51.12451172 91.44604492 C40.70769005 78.20094662 28.10726824 68.12501496 11.12451172 65.44604492 C1.2226479 64.7916697 -8.53581939 64.77314142 -17.87548828 68.44604492 Z " fill="#FFFFFF" transform="translate(118.87548828125,-0.446044921875)"/>
<path d="M0 0 C2.18972381 0.00314442 4.37807047 -0.02032871 6.56762695 -0.0456543 C41.28450726 -0.20382498 68.70905004 15.89218173 92.92504883 39.67504883 C112.65022538 60.33621794 122.71818507 88.30124929 122.63623047 116.50292969 C122.6363765 117.8206839 122.63652252 119.13843811 122.63667297 120.49612427 C122.63695881 124.09271628 122.6310967 127.68927465 122.62409902 131.28585887 C122.61782982 135.0508054 122.61725886 138.81575279 122.61607361 142.58070374 C122.61297079 149.70262904 122.60477157 156.82453892 122.59472412 163.94645745 C122.58143557 173.57563988 122.5760546 183.20482655 122.5702219 192.83401585 C122.56083095 207.99458005 122.54090503 223.15511171 122.52270508 238.31567383 C101.40270508 238.31567383 80.28270508 238.31567383 58.52270508 238.31567383 C58.48532227 229.37086914 58.44793945 220.42606445 58.40942383 211.21020508 C58.37527484 204.80387155 58.33927902 198.39756914 58.30062771 191.99126339 C58.25087262 183.70399041 58.20539626 175.41676846 58.17626953 167.12939453 C58.15318494 160.56516724 58.11967184 154.00108701 58.07400352 147.43697661 C58.05021113 143.96624639 58.03139139 140.49566055 58.02509117 137.02485085 C58.0178351 133.13570981 57.98727991 129.24692813 57.95507812 125.35791016 C57.95651321 124.22645569 57.9579483 123.09500122 57.95942688 121.92926025 C57.77904771 106.41991188 53.67542913 92.95475741 42.91333008 81.51489258 C28.96061453 68.67930622 14.25800456 64.56088184 -4.31420898 65.17944336 C-8.98390953 65.47353962 -13.14433402 66.60748732 -17.47729492 68.31567383 C-18.30229492 68.6327832 -19.12729492 68.94989258 -19.97729492 69.27661133 C-32.95058905 74.99296906 -43.39298817 86.76329629 -48.63259315 99.85975933 C-51.55484211 108.3560048 -51.77912521 117.14278571 -51.79614258 126.0390625 C-51.8061882 127.25986511 -51.81623383 128.48066772 -51.82658386 129.73846436 C-51.85197892 133.04972751 -51.86895269 136.36082332 -51.88201189 139.6721437 C-51.89776092 143.14616751 -51.92451283 146.62010722 -51.95004272 150.09407043 C-51.99662396 156.6562509 -52.03346724 163.21844756 -52.0667156 169.78070766 C-52.10885571 177.99359329 -52.1641661 186.20638381 -52.21948242 194.41918945 C-52.31797759 209.05129838 -52.39672323 223.68343087 -52.47729492 238.31567383 C-73.92729492 238.31567383 -95.37729492 238.31567383 -117.47729492 238.31567383 C-117.55762226 207.51014017 -117.55762226 207.51014017 -117.57780266 192.19227886 C-117.58884563 183.93854634 -117.60282097 175.68485465 -117.62817383 167.43115234 C-117.64825073 160.8918781 -117.66104488 154.3526348 -117.66547191 147.81333059 C-117.66805537 144.35810505 -117.67402815 140.90296796 -117.68875504 137.44777107 C-117.83047353 100.03149827 -112.2748809 69.38708617 -87.47729492 40.31567383 C-86.77604492 39.44555664 -86.07479492 38.57543945 -85.35229492 37.67895508 C-64.70665437 13.23200571 -31.45454691 -0.09399809 0 0 Z " fill="#FFFFFF" transform="translate(943.477294921875,3.684326171875)"/>
<path d="M0 0 C1.18462074 -0.00262848 1.18462074 -0.00262848 2.39317322 -0.00531006 C4.96916993 -0.00966498 7.5450965 -0.00681555 10.12109375 -0.00341797 C11.92187513 -0.0040923 13.72265643 -0.0050634 15.5234375 -0.00631714 C19.2788175 -0.00778501 23.03417358 -0.00566693 26.78955078 -0.00097656 C31.61288834 0.0047532 36.43617064 0.00141559 41.25950623 -0.00454903 C44.96881533 -0.00815126 48.67811117 -0.00701819 52.38742065 -0.00442123 C54.1673076 -0.00375273 55.94719574 -0.00457774 57.7270813 -0.00690079 C60.20220166 -0.00942531 62.67723027 -0.00559112 65.15234375 0 C65.89201889 -0.00202423 66.63169403 -0.00404846 67.39378357 -0.00613403 C72.44432407 0.01512485 72.44432407 0.01512485 73.55859375 1.12939453 C73.65264517 3.12371183 73.67602624 5.12138996 73.67211914 7.11791992 C73.67204361 8.39917252 73.67196808 9.68042511 73.67189026 11.00050354 C73.66678284 12.40935301 73.66156684 13.81820209 73.65625 15.22705078 C73.65438577 16.66051687 73.65296189 18.0939836 73.65196228 19.52745056 C73.64813747 23.3069941 73.63830752 27.08649943 73.6272583 30.86602783 C73.61704338 34.72008751 73.61246449 38.57415335 73.60742188 42.42822266 C73.59668521 49.9952974 73.57960924 57.56234062 73.55859375 65.12939453 C72.6670459 65.13526077 71.77549805 65.14112701 70.85693359 65.14717102 C62.3852498 65.20548189 53.91381897 65.27777206 45.44238281 65.36510944 C41.08888662 65.40951694 36.73547768 65.4488349 32.38183594 65.47583008 C28.1670714 65.50216295 23.95264818 65.54276718 19.73809814 65.5925808 C18.14370017 65.60904975 16.54924345 65.62068653 14.95477295 65.62700844 C-4.90821432 65.71359848 -23.37644217 68.28889649 -38.32421875 82.74658203 C-49.92950353 95.80788039 -52.72791867 111.94868875 -52.76025391 128.8527832 C-52.77029953 130.07358582 -52.78034515 131.29438843 -52.79069519 132.55218506 C-52.81609025 135.86344822 -52.83306402 139.17454402 -52.84612322 142.4858644 C-52.86187224 145.95988821 -52.88862416 149.43382792 -52.91415405 152.90779114 C-52.96073529 159.46997161 -52.99757856 166.03216827 -53.03082693 172.59442836 C-53.07296704 180.80731399 -53.12827743 189.02010451 -53.18359375 197.23291016 C-53.28208892 211.86501909 -53.36083456 226.49715157 -53.44140625 241.12939453 C-74.89140625 241.12939453 -96.34140625 241.12939453 -118.44140625 241.12939453 C-118.56231535 207.95999737 -118.56231535 207.95999737 -118.58789062 193.97119141 C-118.60563376 184.34410766 -118.62639679 174.71710316 -118.66772461 165.09008789 C-118.69782005 158.07617388 -118.71702655 151.06232468 -118.72367173 144.04834789 C-118.72755025 140.34156855 -118.7365312 136.63497447 -118.75859642 132.92825508 C-118.98039825 94.09818881 -110.08755133 62.5297954 -82.55859375 34.15673828 C-60.81966475 12.5879637 -30.56267794 -0.08551143 0 0 Z " fill="#FFFFFF" transform="translate(380.44140625,0.87060546875)"/>
<path d="M0 0 C20.79 0 41.58 0 63 0 C64.9317693 1.9317693 64.12297276 4.83962046 64.12908131 7.41062886 C64.12616847 8.3415436 64.12325563 9.27245835 64.12025452 10.23158264 C64.12110894 11.21248963 64.12196337 12.19339662 64.12284368 13.20402807 C64.12450146 16.51762862 64.11897226 19.83117944 64.11352539 23.14477539 C64.11324356 25.50942483 64.11340118 27.87407436 64.1139679 30.23872375 C64.11422605 36.01048361 64.10987474 41.78222696 64.10353024 47.55398304 C64.09639628 54.26749115 64.09488634 60.98099688 64.09374207 67.69450825 C64.09155123 79.66784298 64.08489029 91.64117091 64.07543945 103.61450195 C64.06626615 115.24829067 64.05918492 126.88207754 64.05493164 138.51586914 C64.05466892 139.23248536 64.05440619 139.94910157 64.05413551 140.68743343 C64.05283051 144.28233988 64.05156679 147.87724635 64.05032361 151.47215283 C64.03995001 181.31477434 64.02151117 211.15738381 64 241 C42.88 241 21.76 241 0 241 C0 161.47 0 81.94 0 0 Z " fill="#FFFFFF" transform="translate(476,1)"/>
</svg>
